<svg width="28" height="24" viewBox="0 0 28 24" fill="none" xmlns="http://www.w3.org/2000/svg">
<path d="M27.5 24H0.5V0H27.5V24Z" stroke="#E5E7EB"/>
<g clip-path="url(#clip0_317_50)">
<path d="M11.5016 2.00156L9.73438 2.6625C9.59375 2.71406 9.5 2.85 9.5 3C9.5 3.15 9.59375 3.28594 9.73438 3.3375L11.5016 3.99844L12.1625 5.76562C12.2141 5.90625 12.35 6 12.5 6C12.65 6 12.7859 5.90625 12.8375 5.76562L13.4984 3.99844L15.2656 3.3375C15.4062 3.28594 15.5 3.15 15.5 3C15.5 2.85 15.4062 2.71406 15.2656 2.6625L13.4984 2.00156L12.8375 0.234375C12.7859 0.09375 12.65 0 12.5 0C12.35 0 12.2141 0.09375 12.1625 0.234375L11.5016 2.00156ZM2.66094 18.5344C1.78437 19.4109 1.78437 20.8359 2.66094 21.7172L4.28281 23.3391C5.15937 24.2156 6.58438 24.2156 7.46563 23.3391L25.3391 5.46094C26.2156 4.58437 26.2156 3.15937 25.3391 2.27812L23.7172 0.660937C22.8406 -0.215625 21.4156 -0.215625 20.5344 0.660937L2.66094 18.5344ZM23.2156 3.87187L18.2938 8.79375L17.2016 7.70156L22.1234 2.77969L23.2156 3.87187ZM0.851562 5.49375C0.640625 5.57344 0.5 5.775 0.5 6C0.5 6.225 0.640625 6.42656 0.851562 6.50625L3.5 7.5L4.49375 10.1484C4.57344 10.3594 4.775 10.5 5 10.5C5.225 10.5 5.42656 10.3594 5.50625 10.1484L6.5 7.5L9.14844 6.50625C9.35938 6.42656 9.5 6.225 9.5 6C9.5 5.775 9.35938 5.57344 9.14844 5.49375L6.5 4.5L5.50625 1.85156C5.42656 1.64062 5.225 1.5 5 1.5C4.775 1.5 4.57344 1.64062 4.49375 1.85156L3.5 4.5L0.851562 5.49375ZM17.3516 17.4937C17.1406 17.5734 17 17.775 17 18C17 18.225 17.1406 18.4266 17.3516 18.5062L20 19.5L20.9938 22.1484C21.0734 22.3594 21.275 22.5 21.5 22.5C21.725 22.5 21.9266 22.3594 22.0062 22.1484L23 19.5L25.6484 18.5062C25.8594 18.4266 26 18.225 26 18C26 17.775 25.8594 17.5734 25.6484 17.4937L23 16.5L22.0062 13.8516C21.9266 13.6406 21.725 13.5 21.5 13.5C21.275 13.5 21.0734 13.6406 20.9938 13.8516L20 16.5L17.3516 17.4937Z" fill="#4F46E5"/>
</g>
<defs>
<clipPath id="clip0_317_50">
<path d="M0.5 0H27.5V24H0.5V0Z" fill="white"/>
</clipPath>
</defs>
</svg>
